<svg xmlns="http://www.w3.org/2000/svg" width="169" height="22" fill="none"><g fill="#34c65c"><path d="M0 0h3.4v15H0zm7.2 0h3.4v15H7.2zM3.4 5.2h3.8v4H3.4zM10.6 0h6v3.6h-6zM0 17.8h7.2v3.6H0zM18.9 0h4.5v3.6h-4.5zM9.4 17.8h3.4v3.6H9.4zM12.8 6.5h3.8v14.9h-3.8zm7.2 0h3.4v14.9H20zM16.6 11.7H20v3.6h-3.4z"/></g><path d="M41.7 16h-2.3v-4.3h-4.2V16h-2.4V5.8h2.4v4.3h4.2V5.8h2.3V16zM53 16h-1.8a.9.9 0 01-.5-.1.8.8 0 01-.3-.4l-.6-1.8h-3.9l-.6 1.8-.3.3-.5.2h-1.8l4-10.2H49L53 16zm-6.5-3.9H49l-.9-2.8-.2-.6-.3-.8-.2.8-.2.6-1 2.8zm13.8 1.3h.1l.2.1 1 1c-.5.5-1 1-1.6 1.2s-1.4.4-2.2.4c-.8 0-1.5-.1-2-.4s-1.2-.6-1.6-1a4.9 4.9 0 01-1-1.7 6.1 6.1 0 010-4.2A4.9 4.9 0 0156 6.1c.7-.3 1.4-.4 2.2-.4a5.3 5.3 0 011 0 5 5 0 011 .4 4.2 4.2 0 01.8.4l.7.5-.8 1.1a1.1 1.1 0 01-.2.2h-.3-.2l-.3-.1-.3-.2-.3-.2-.5-.1h-.6a3 3 0 00-1.2.2c-.4.1-.7.3-1 .6s-.4.6-.5 1l-.2 1.4c0 .5 0 1 .2 1.4l.5 1a2.5 2.5 0 001 .6c.2.2.6.3 1 .3h.5a2.7 2.7 0 001-.4 3 3 0 00.4-.3h.2a.5.5 0 01.2-.1zm4.7-3.5h.4c.3 0 .6 0 .7-.3l2.3-3.3a1 1 0 01.4-.4l.6-.1h2.1l-3 4.1a2 2 0 01-.4.4 2.1 2.1 0 01-.3.2l.5.3a1.7 1.7 0 01.4.5l3 4.7h-2a2 2 0 01-.4 0 .9.9 0 01-.3-.1l-.1-.1-.2-.2-2.3-3.6a.7.7 0 00-.3-.3h-1.1V16h-2.4V5.8H65v4.1zM79 5.8v1.8h-4.2V10h3.2v1.8h-3.2v2.4h4.2V16h-6.6V5.8h6.6zm3.7 6.4V16h-2.4V5.8h3.3c.8 0 1.4 0 2 .2l1.2.7c.3.3.6.6.7 1l.3 1.1a3.2 3.2 0 01-.2 1 2.8 2.8 0 01-.4.8 3 3 0 01-.6.6 3.4 3.4 0 01-.9.5 2.1 2.1 0 01.4.3l.4.5 2.2 3.5h-2.2c-.4 0-.6-.1-.8-.4l-1.7-3-.3-.3h-1zm0-1.6h1l.8-.1c.3-.1.4-.2.5-.4l.3-.5a2 2 0 00.1-.6c0-.4-.1-.8-.4-1s-.7-.4-1.3-.4h-1v3zm18.6 5.4H99v-4.3h-4.2V16h-2.3V5.8h2.3v4.3H99V5.8h2.4V16zm8.2-10.2v1.8h-4.2V10h3.2v1.8h-3.2v2.4h4.2V16H103V5.8h6.6zm3.7 6.4V16H111V5.8h3.4c.7 0 1.3 0 1.8.2.6.2 1 .4 1.3.7.4.2.6.6.7 1l.3 1.1a3.2 3.2 0 01-.2 1c0 .3-.2.5-.4.8a3 3 0 01-.6.6l-.9.5.5.3a1.7 1.7 0 01.3.5l2.2 3.5H117c-.4 0-.6-.1-.8-.4l-1.7-3-.3-.3h-1zm0-1.6h1l.8-.1a1.5 1.5 0 00.5-.4 1.3 1.3 0 00.4-.5 2 2 0 000-.6c0-.4 0-.8-.4-1s-.7-.4-1.3-.4h-1v3zm16.7.3a5.5 5.5 0 01-.4 2l-1 1.7c-.5.5-1.1.8-1.8 1.1s-1.3.4-2.1.4-1.5-.1-2.2-.4-1.2-.6-1.7-1-.8-1.1-1-1.7-.4-1.4-.4-2.1.1-1.4.3-2 .7-1.2 1.1-1.7a5 5 0 011.7-1.1c.7-.3 1.4-.4 2.2-.4s1.5.1 2.1.4 1.3.6 1.7 1 .8 1.1 1 1.7a5.4 5.4 0 01.5 2.1zm-2.5 0l-.1-1.4a2.9 2.9 0 00-.6-1c-.3-.3-.6-.5-1-.6l-1.1-.3c-.5 0-.9.1-1.2.3l-1 .6-.5 1-.2 1.4c0 .5 0 1 .2 1.4l.6 1c.3.3.5.5.9.6l1.2.3 1.2-.3.9-.6.6-1c.3-.3.1-.9.1-1.4z" fill="#fff"/><path d="M134 16V5.7h1.3v4.2l1-.8a2.8 2.8 0 012.4 0c.3 0 .6.3.9.6s.4.7.5 1.2a5.8 5.8 0 01.2 1.5c0 .5 0 1-.2 1.5l-.6 1.1a2.9 2.9 0 01-1 .8c-.4.2-.8.3-1.3.3-.4 0-.8 0-1.1-.3l-.9-.7v.6c0 .2-.2.3-.4.3h-.8zm3.2-6.2c-.4 0-.8 0-1 .3l-1 .8v3.4l.8.6 1 .2c.6 0 1.1-.2 1.5-.7s.5-1.1.5-2l-.1-1.2-.4-.8-.5-.5-.8-.1zm7.4-1c.4 0 .8 0 1.2.2a2.6 2.6 0 011 .6l.5 1c.1.4.3.9.3 1.4l-.1.4h-5l.2 1.2a2.4 2.4 0 00.5.9 1.9 1.9 0 00.7.5l.9.1a2.7 2.7 0 001.4-.3l.4-.3h.5l.4.5-.6.5a3.5 3.5 0 01-.7.3 4.1 4.1 0 01-.7.2l-.8.1c-.5 0-1 0-1.4-.2a3 3 0 01-1-.8 3.4 3.4 0 01-.8-1.2l-.2-1.6a4.2 4.2 0 01.2-1.4 3.3 3.3 0 01.7-1c.3-.4.6-.6 1-.8s.9-.3 1.4-.3zm0 1c-.6 0-1 0-1.4.4s-.5.9-.6 1.5h3.8a2.5 2.5 0 000-.8l-.4-.6-.6-.4-.8-.2zm6.7 6.3c-.6 0-1-.1-1.3-.5s-.4-.7-.4-1.3V10h-.9l-.2-.1v-.7l1.1-.2.3-2.1v-.2a.3.3 0 01.3 0h.6V9h2v.9h-2v4.2c0 .3 0 .5.2.7s.3.2.6.2h.3l.3-.2h.1l.2-.1h.1l.4.7-.8.4a3 3 0 01-.9.2zm8.3-.1H158.7l-.1-.3-.2-.7-.5.5-.6.3-.6.2a3.5 3.5 0 01-.7.1 2.6 2.6 0 01-.8-.1 1.8 1.8 0 01-.6-.3l-.4-.6a2 2 0 01-.2-.9c0-.2 0-.5.2-.8l.8-.7 1.3-.5c.5-.2 1.3-.2 2-.2v-.5c0-.6 0-1-.3-1.3s-.6-.4-1-.4l-.8.1a2.7 2.7 0 00-.6.3l-.3.2-.4.1h-.2l-.1-.2-.3-.4c.4-.4.9-.7 1.3-.8s1-.3 1.5-.3c.4 0 .8 0 1 .2l.8.5c.2.2.4.5.5.9l.2 1V16zm-3.3-.8a2.7 2.7 0 00.6 0l.6-.2a2.7 2.7 0 00.4-.3l.5-.4v-1.5a10 10 0 00-1.5.1 4 4 0 00-1 .3l-.5.4a.9.9 0 00-.2.6v.5a1 1 0 00.3.3l.4.2a1.8 1.8 0 00.4 0z" fill="#34c65c"/></svg>